<svg xmlns="http://www.w3.org/2000/svg" viewBox="0 0 180 180"><defs><style>.cls-1{fill:#38234e;}.cls-2{fill:#dddeee;}.cls-3{fill:#eeefff;}</style></defs><title>html</title><g id="Layer_2" data-name="Layer 2"><g id="Layer_1-2" data-name="Layer 1"><path class="cls-1" d="M90,176a86,86,0,1,1,86-86A86.1,86.1,0,0,1,90,176Z"/><path class="cls-2" d="M90,8A82,82,0,1,1,8,90,82.09,82.09,0,0,1,90,8m0-8a90,90,0,1,0,90,90A90,90,0,0,0,90,0Z"/><path class="cls-3" d="M28,90.32,37.16,94v2.87l-12-5.55V89.2l12-5.54v2.87Z"/><path class="cls-3" d="M58.23,99.75H55.41V89.89H44.66v9.86H41.84V78.42h2.81v9.17H55.41V78.42h2.83Z"/><path class="cls-3" d="M77.54,80.72H70.69v19h-2.8v-19H61v-2.3H77.54Z"/><path class="cls-3" d="M84.34,78.42l7,17.4,7-17.4h3.65V99.75H99.12V91.44l.26-9-7,17.27H90.23l-7-17.23.28,8.92v8.31H80.71V78.42Z"/><path class="cls-3" d="M109.72,97.45h10.11v2.3H106.9V78.42h2.83Z"/><path class="cls-3" d="M130.58,101.58h-2.33l8.91-23.16h2.31Z"/><path class="cls-3" d="M152,90.23l-9.68-3.79V83.65l12.51,5.54v2.14l-12.51,5.55V94.07Z"/></g></g></svg>