<svg xmlns="http://www.w3.org/2000/svg" viewBox="0 0 419.14 231.36"><title>Asset 1</title><g id="Layer_2" data-name="Layer 2"><g id="Layer_1-2" data-name="Layer 1"><path d="M11.66,103.63H0Q.14,99.38.25,85T.35,50.26Q.35,42,.25,31.1T0,9H11.66q-.14,10.81-.21,24.46T11.38,57q0,20.36.11,31.38T11.66,103.63ZM73,97.11l-8.14,7.78Q47.92,88.5,32.23,74.29L14.28,58v-.28Q18.66,53.37,33,38.45T61.78,7.92l8,7.12q-12.17,11.65-25,24.82T28.64,56.41v.2q1.63,1.56,14,12.9T73,97.11Z"/><path d="M99.74,103.63H88.57q.07-.85.18-20.68T88.85,50q0-8.41,0-21.24T88.57,0H99.74q-.14,10.89-.21,25.2t-.07,24.14q0,21.42.14,37.46T99.74,103.63Z"/><path d="M189.23,67.86a42.68,42.68,0,0,1-2.93,15.69,35.4,35.4,0,0,1-8.45,12.79,33.12,33.12,0,0,1-10.36,6.79,33.76,33.76,0,0,1-12.9,2.33,35,35,0,0,1-12.72-2.3,31.87,31.87,0,0,1-10.6-6.75A34.78,34.78,0,0,1,123,83.69a43.77,43.77,0,0,1-2.93-16,43,43,0,0,1,2.51-14.95,34.52,34.52,0,0,1,7.81-12.26,32.68,32.68,0,0,1,11-7.6,33.89,33.89,0,0,1,13.29-2.65A34.94,34.94,0,0,1,168,32.69,30.64,30.64,0,0,1,178.62,40a36.48,36.48,0,0,1,8,12.55A43.22,43.22,0,0,1,189.23,67.86Zm-11.31.49a39.64,39.64,0,0,0-2.16-12.94,26.06,26.06,0,0,0-6.68-10.6,19,19,0,0,0-6.54-4.14,21.87,21.87,0,0,0-7.88-1.45,21.3,21.3,0,0,0-8.48,1.56,20.94,20.94,0,0,0-6.79,4.88,26.69,26.69,0,0,0-5.9,9.75,35.75,35.75,0,0,0-2.16,12.3A38.61,38.61,0,0,0,133.53,81a25.53,25.53,0,0,0,7.07,10.43A19.24,19.24,0,0,0,147,95.18a22.2,22.2,0,0,0,7.63,1.31,22,22,0,0,0,8.31-1.56,19.57,19.57,0,0,0,6.75-4.52,27.27,27.27,0,0,0,6.15-9.9A35.1,35.1,0,0,0,177.92,68.35Z"/><path d="M263.87,65.24H212.76A31.11,31.11,0,0,0,215.94,79a25.86,25.86,0,0,0,9.54,10.36,31.31,31.31,0,0,0,9.33,3.92,52.45,52.45,0,0,0,12.58,1.31q4,0,7.39-.21t4.13-.28l-1.27,9.4q-.57.07-3.75.25t-7.49.18A59.6,59.6,0,0,1,226.72,101,37.31,37.31,0,0,1,213,92.88a36.53,36.53,0,0,1-7.81-11,34.06,34.06,0,0,1-3.22-14.91,41.76,41.76,0,0,1,2.4-14.56,39.37,39.37,0,0,1,7.21-12.09,27.83,27.83,0,0,1,10.36-7.42,32.63,32.63,0,0,1,12.83-2.62,32,32,0,0,1,11.66,2,23.61,23.61,0,0,1,8.84,6,30.19,30.19,0,0,1,6.36,11.13A52,52,0,0,1,263.87,65.24Zm-11-7.92q-1.13-8.76-6-13.75t-12.76-5A18.41,18.41,0,0,0,221,43.65q-5.3,5.06-7.35,13.68Z"/><path d="M73.4,193.54l-8.85,7.28q-1.55-1.63-11-12.27T24.36,155.34l.07-.64a35.88,35.88,0,0,0,7.14-3.08,36.88,36.88,0,0,0,7.5-5.13,23.12,23.12,0,0,0,4.56-5.94,19.71,19.71,0,0,0,1.94-9.48,15.47,15.47,0,0,0-2.86-9.37,16.48,16.48,0,0,0-7.88-5.77,30.12,30.12,0,0,0-8.62-1.88q-4.52-.32-8.34-.32-2.54,0-3.89,0l-2,0q-.14,13.44-.18,23.7t0,14.5q0,9.69.11,26.32t.18,20.87H.4q.07-4.24.21-16.43T.75,152.4V139.33q0-9.54-.35-34.78l7.06-.14q6.35-.14,11.72-.14a98.48,98.48,0,0,1,11.93.71,41.84,41.84,0,0,1,11.3,3,25.47,25.47,0,0,1,11.08,8.72,22.72,22.72,0,0,1,4.1,13.53q0,10-6.17,16.71a53.78,53.78,0,0,1-11.68,9.92v.35Q49.42,168.57,61,180.59T73.4,193.54Z"/><path d="M151.46,163.43a42.68,42.68,0,0,1-2.93,15.69,35.39,35.39,0,0,1-8.45,12.79,33.11,33.11,0,0,1-10.35,6.79,33.76,33.76,0,0,1-12.9,2.33,35,35,0,0,1-12.72-2.3A31.87,31.87,0,0,1,93.49,192a34.77,34.77,0,0,1-8.31-12.72,43.78,43.78,0,0,1-2.93-16,43,43,0,0,1,2.51-14.95,34.54,34.54,0,0,1,7.81-12.26,32.68,32.68,0,0,1,11-7.6,33.89,33.89,0,0,1,13.29-2.65,34.94,34.94,0,0,1,13.32,2.44,30.64,30.64,0,0,1,10.64,7.32,36.47,36.47,0,0,1,8,12.55A43.22,43.22,0,0,1,151.46,163.43Zm-11.31.49A39.64,39.64,0,0,0,138,151a26.05,26.05,0,0,0-6.68-10.6,19,19,0,0,0-6.54-4.14,21.87,21.87,0,0,0-7.88-1.45,21.31,21.31,0,0,0-8.48,1.56,21,21,0,0,0-6.79,4.88,26.69,26.69,0,0,0-5.9,9.75,35.77,35.77,0,0,0-2.15,12.3,38.59,38.59,0,0,0,2.19,13.25A25.53,25.53,0,0,0,102.82,187a19.24,19.24,0,0,0,6.36,3.78,22.2,22.2,0,0,0,7.63,1.31,22,22,0,0,0,8.31-1.56,19.57,19.57,0,0,0,6.75-4.52,27.26,27.26,0,0,0,6.15-9.9A35.1,35.1,0,0,0,140.15,163.93Z"/><path d="M225,127q0,1.56-.11,14t-.11,23.68q0,7.63.07,15.55t.07,14.49q0,12.09-4.13,18.94a29.92,29.92,0,0,1-11.77,11,57.48,57.48,0,0,1-14.63,4.91,103.93,103.93,0,0,1-20.92,1.8l-1.13-9q8.27-.14,14.85-.88a51.08,51.08,0,0,0,11.95-2.72q8.27-3.11,11.52-8.23a23.74,23.74,0,0,0,3.39-12.48h-3.39a78.35,78.35,0,0,1-17.32-2,42.8,42.8,0,0,1-15.2-6.4,32.47,32.47,0,0,1-10.11-10.89q-3.89-6.71-3.89-16.61a29.12,29.12,0,0,1,5.44-17.46,38.18,38.18,0,0,1,14.56-12,50.27,50.27,0,0,1,14.17-4.42A118.78,118.78,0,0,1,216.91,127H225Zm-10.82,37.57q0-5.08,0-12.71T214,136h-1.84a68.46,68.46,0,0,0-11.49.85A46.58,46.58,0,0,0,190.33,140a23.82,23.82,0,0,0-11,9.11,24.72,24.72,0,0,0-3.82,13.55A22.87,22.87,0,0,0,179.27,176a25.19,25.19,0,0,0,10.14,8.54,47.4,47.4,0,0,0,10,3.32,55.16,55.16,0,0,0,12.05,1.27h2.62q0-.85.07-7.87T214.23,164.59Z"/><path d="M305.83,160.82h-51.1a31.09,31.09,0,0,0,3.18,13.75,25.85,25.85,0,0,0,9.54,10.36,31.31,31.31,0,0,0,9.33,3.92,52.45,52.45,0,0,0,12.58,1.31q4,0,7.39-.21t4.14-.28l-1.27,9.4q-.57.07-3.75.25t-7.49.18a59.6,59.6,0,0,1-19.69-2.93,37.31,37.31,0,0,1-13.75-8.09,36.54,36.54,0,0,1-7.81-11,34.06,34.06,0,0,1-3.22-14.91,41.74,41.74,0,0,1,2.4-14.56,39.34,39.34,0,0,1,7.21-12.09,27.84,27.84,0,0,1,10.36-7.42,32.63,32.63,0,0,1,12.83-2.62,32,32,0,0,1,11.66,2,23.62,23.62,0,0,1,8.84,6,30.18,30.18,0,0,1,6.36,11.13A52,52,0,0,1,305.83,160.82Zm-11-7.92q-1.13-8.76-6-13.75t-12.76-5a18.41,18.41,0,0,0-13.22,5.05q-5.3,5.06-7.35,13.68Z"/><path d="M365.85,136a114.1,114.1,0,0,0-11.91,3.89q-8,3-18.48,7.92,0,.78-.07,7.1t-.07,11.77q0,8.34.18,19.79t.18,12.72H324.49q0-1.2.14-7.92t.14-23q0-6.57-.07-18.38t-.21-22.27h11v10.74l.07.07a158.24,158.24,0,0,1,15.76-7.85,92.59,92.59,0,0,1,12.44-4.52Z"/><path d="M419.14,178.49a17.31,17.31,0,0,1-2.55,9.33,20.37,20.37,0,0,1-6.65,6.64,33.8,33.8,0,0,1-10.23,4.06,57.59,57.59,0,0,1-13.06,1.38q-3.47,0-7.19-.32t-4.21-.39l-.43-9.26q.64.07,4.91.39t8.52.32a61,61,0,0,0,6.36-.42,21.81,21.81,0,0,0,6.43-1.56,12.79,12.79,0,0,0,5.23-3.82,8.81,8.81,0,0,0,1.7-5.44,7.15,7.15,0,0,0-1.49-4.7,17.85,17.85,0,0,0-4.1-3.5,50.5,50.5,0,0,0-7.74-4.06,75.94,75.94,0,0,1-8.24-4.14,21.85,21.85,0,0,1-7.24-6.86,16.79,16.79,0,0,1-2.51-9.19,16.21,16.21,0,0,1,2.87-9.4,21.08,21.08,0,0,1,7.68-6.72,27.64,27.64,0,0,1,9.24-3,67.51,67.51,0,0,1,9.81-.74q4.32,0,7.08.14t3.19.14l.78,9.4q-.5,0-4.36-.28t-8.47-.28a32.79,32.79,0,0,0-6.2.57,18.54,18.54,0,0,0-5,1.63,10.38,10.38,0,0,0-4.36,3.75,8.26,8.26,0,0,0-1.31,4.24,7,7,0,0,0,1.84,4.88,17.22,17.22,0,0,0,4.32,3.46q2.9,1.7,7.93,4a73.45,73.45,0,0,1,7.3,3.75,24.86,24.86,0,0,1,7.54,6.93A15.73,15.73,0,0,1,419.14,178.49Z"/></g></g></svg>